<svg width="52" height="53" viewBox="0 0 52 53" fill="none" xmlns="http://www.w3.org/2000/svg">
<g filter="url(#filter0_i_166_50)">
<circle cx="25.9856" cy="26.3957" r="24.9016" fill="white"/>
</g>
<circle cx="25.9856" cy="26.3957" r="24.9016" stroke="#E8E7F1" stroke-width="1.5"/>
<path d="M19.5843 36.1014C19.4765 36.1014 21.7426 26.8739 21.7426 26.8739C21.7978 26.6958 21.9426 26.5593 22.1239 26.515C22.3047 26.4691 22.4969 26.5238 22.6287 26.6556L26.3628 30.3898C26.4722 30.4992 26.5285 30.6502 26.5175 30.805C26.5066 30.9592 26.4295 31.1009 26.3055 31.1936L19.9042 35.9946C19.8099 36.066 19.6968 36.1014 19.5843 36.1014Z" fill="#7F7F7F"/>
<path d="M31.8496 37.1683C31.736 37.1683 31.623 37.1318 31.5297 37.0615L14.4636 24.2588C14.3089 24.1432 14.2292 23.9535 14.2547 23.7624C14.2797 23.5712 14.4063 23.4086 14.5855 23.3367L35.9233 14.8016C36.1051 14.7297 36.3125 14.761 36.4625 14.887C36.6131 15.0121 36.6829 15.2095 36.6443 15.4017L32.3726 36.7396C32.3366 36.9193 32.2111 37.0678 32.0397 37.1334C31.9782 37.1569 31.9136 37.1683 31.8496 37.1683Z" fill="#E6E6E6"/>
<path d="M19.5848 36.1016C19.5561 36.1016 19.5274 36.0995 19.4988 36.0948C19.2404 36.0526 19.0508 35.8296 19.0508 35.5681V27.5664C19.0508 27.3976 19.131 27.2388 19.2665 27.1382L35.8033 14.869C36.0299 14.7007 36.3466 14.7382 36.5284 14.9523C36.7102 15.1675 36.6936 15.4863 36.4909 15.6816L21.8239 29.7807L20.0901 35.7369C20.0166 35.9573 19.8108 36.1016 19.5848 36.1016Z" fill="#B3B3B3"/>
<defs>
<filter id="filter0_i_166_50" x="-5.06844" y="-14.972" width="56.7056" height="67.0194" filterUnits="userSpaceOnUse" color-interpolation-filters="sRGB">
<feFlood flood-opacity="0" result="BackgroundImageFix"/>
<feBlend mode="normal" in="SourceGraphic" in2="BackgroundImageFix" result="shape"/>
<feColorMatrix in="SourceAlpha" type="matrix" values="0 0 0 0 0 0 0 0 0 0 0 0 0 0 0 0 0 0 127 0" result="hardAlpha"/>
<feMorphology radius="14.7339" operator="erode" in="SourceAlpha" result="effect1_innerShadow_166_50"/>
<feOffset dx="-5.40242" dy="-15.7161"/>
<feGaussianBlur stdDeviation="9.82258"/>
<feComposite in2="hardAlpha" operator="arithmetic" k2="-1" k3="1"/>
<feColorMatrix type="matrix" values="0 0 0 0 1 0 0 0 0 1 0 0 0 0 1 0 0 0 1 0"/>
<feBlend mode="normal" in2="shape" result="effect1_innerShadow_166_50"/>
</filter>
</defs>
</svg>
