<svg width="52" height="53" viewBox="0 0 52 53" fill="none" xmlns="http://www.w3.org/2000/svg">
<g filter="url(#filter0_i_166_63)">
<circle cx="25.6985" cy="26.3957" r="24.9016" fill="white"/>
</g>
<circle cx="25.6985" cy="26.3957" r="24.9016" stroke="#E8E7F1" stroke-width="1.5"/>
<path d="M36.2266 16.8315C36.2184 16.8155 36.2048 16.8029 36.1884 16.796C34.2822 15.9078 32.2707 15.2744 30.2041 14.9117C30.1853 14.9082 30.1659 14.9107 30.1486 14.919C30.1314 14.9273 30.1171 14.9409 30.1079 14.9579C29.834 15.4628 29.5854 15.9815 29.3629 16.5118C27.1352 16.1684 24.8693 16.1684 22.6416 16.5118C22.4177 15.9801 22.1651 15.4614 21.8849 14.9579C21.8753 14.9413 21.8609 14.928 21.8438 14.9198C21.8266 14.9115 21.8074 14.9087 21.7887 14.9117C19.7219 15.2736 17.7102 15.9071 15.8043 16.796C15.7879 16.8031 15.7742 16.8151 15.7649 16.8304C11.9534 22.6112 10.9093 28.2499 11.4215 33.8188C11.423 33.8324 11.4271 33.8456 11.4337 33.8576C11.4402 33.8696 11.4491 33.8802 11.4598 33.8886C13.6791 35.5576 16.1615 36.8315 18.801 37.656C18.8196 37.6617 18.8394 37.6614 18.8579 37.6553C18.8763 37.6492 18.8925 37.6374 18.9042 37.6217C19.4711 36.8383 19.9734 36.0087 20.406 35.1414C20.412 35.1295 20.4153 35.1165 20.416 35.1032C20.4166 35.0898 20.4144 35.0765 20.4096 35.0641C20.4048 35.0517 20.3974 35.0404 20.388 35.0311C20.3786 35.0218 20.3674 35.0146 20.3551 35.01C19.5629 34.7022 18.7961 34.3311 18.0617 33.9003C18.0483 33.8923 18.0371 33.8811 18.029 33.8677C18.021 33.8543 18.0163 33.8391 18.0153 33.8234C18.0144 33.8077 18.0173 33.7921 18.0238 33.7778C18.0303 33.7635 18.0401 33.7511 18.0524 33.7415C18.207 33.6243 18.3588 33.5035 18.5079 33.3791C18.5209 33.3682 18.5368 33.3612 18.5535 33.3589C18.5703 33.3566 18.5874 33.3591 18.6029 33.3661C23.4143 35.5963 28.6234 35.5963 33.3779 33.3661C33.3934 33.3586 33.4106 33.3558 33.4276 33.3579C33.4447 33.36 33.4608 33.3669 33.4741 33.378C33.6233 33.503 33.7755 33.6242 33.9307 33.7415C33.9431 33.751 33.953 33.7633 33.9595 33.7775C33.9661 33.7918 33.9691 33.8074 33.9683 33.8231C33.9675 33.8388 33.9629 33.8541 33.9549 33.8675C33.947 33.881 33.9358 33.8922 33.9226 33.9003C33.1898 34.3348 32.4223 34.7056 31.6281 35.0088C31.6157 35.0136 31.6045 35.021 31.5952 35.0304C31.5858 35.0399 31.5786 35.0513 31.5739 35.0638C31.5691 35.0763 31.5671 35.0897 31.5678 35.1031C31.5685 35.1164 31.572 35.1295 31.5781 35.1414C32.0179 36.0039 32.5195 36.8324 33.0788 37.6203C33.0901 37.6365 33.1062 37.6486 33.1247 37.655C33.1432 37.6614 33.1632 37.6617 33.1819 37.6559C35.8261 36.8341 38.3129 35.5601 40.535 33.8886C40.5458 33.8806 40.5548 33.8703 40.5614 33.8585C40.568 33.8466 40.5721 33.8335 40.5733 33.82C41.1865 27.3818 39.5467 21.7893 36.2266 16.8315ZM21.1246 30.4279C19.676 30.4279 18.4824 29.0778 18.4824 27.4197C18.4824 25.7616 19.6528 24.4114 21.1246 24.4114C22.6078 24.4114 23.7899 25.7733 23.7667 27.4196C23.7667 29.0778 22.5962 30.4279 21.1246 30.4279ZM30.8936 30.4279C29.445 30.4279 28.2514 29.0778 28.2514 27.4197C28.2514 25.7616 29.4219 24.4114 30.8936 24.4114C32.3769 24.4114 33.5589 25.7733 33.5358 27.4196C33.5358 29.0778 32.3769 30.4279 30.8936 30.4279Z" fill="#323256"/>
<defs>
<filter id="filter0_i_166_63" x="-5.35555" y="-14.972" width="56.7056" height="67.0194" filterUnits="userSpaceOnUse" color-interpolation-filters="sRGB">
<feFlood flood-opacity="0" result="BackgroundImageFix"/>
<feBlend mode="normal" in="SourceGraphic" in2="BackgroundImageFix" result="shape"/>
<feColorMatrix in="SourceAlpha" type="matrix" values="0 0 0 0 0 0 0 0 0 0 0 0 0 0 0 0 0 0 127 0" result="hardAlpha"/>
<feMorphology radius="14.7339" operator="erode" in="SourceAlpha" result="effect1_innerShadow_166_63"/>
<feOffset dx="-5.40242" dy="-15.7161"/>
<feGaussianBlur stdDeviation="9.82258"/>
<feComposite in2="hardAlpha" operator="arithmetic" k2="-1" k3="1"/>
<feColorMatrix type="matrix" values="0 0 0 0 1 0 0 0 0 1 0 0 0 0 1 0 0 0 1 0"/>
<feBlend mode="normal" in2="shape" result="effect1_innerShadow_166_63"/>
</filter>
</defs>
</svg>
