<svg width="52" height="53" viewBox="0 0 52 53" fill="none" xmlns="http://www.w3.org/2000/svg">
<g filter="url(#filter0_i_166_43)">
<circle cx="26.1291" cy="26.3957" r="24.9016" fill="white"/>
</g>
<circle cx="26.1291" cy="26.3957" r="24.9016" stroke="#E8E7F1" stroke-width="1.5"/>
<g clip-path="url(#clip0_166_43)">
<path d="M37.0371 14.2295H15.2152C14.1733 14.2295 13.3266 15.0561 13.3266 16.0757V37.9873C13.3266 39.0069 14.1733 39.8349 15.2152 39.8349H37.0371C38.0811 39.8349 38.9313 39.0069 38.9313 37.9873V16.0757C38.9313 15.0561 38.0811 14.2295 37.0371 14.2295Z" fill="#007BB5"/>
<path d="M17.1207 23.8281H20.9222V36.0474H17.1207V23.8281ZM19.0225 17.7539C20.2374 17.7539 21.2236 18.7406 21.2236 19.9561C21.2236 21.172 20.2374 22.1586 19.0225 22.1586C17.8028 22.1586 16.8193 21.172 16.8193 19.9561C16.8193 18.7406 17.8028 17.7539 19.0225 17.7539Z" fill="white"/>
<path d="M23.3046 23.8286H26.945V25.4991H26.9971C27.5034 24.5384 28.7426 23.5254 30.5902 23.5254C34.4354 23.5254 35.1461 26.0555 35.1461 29.3464V36.0479H31.3487V30.1056C31.3487 28.6886 31.3244 26.8657 29.3754 26.8657C27.3993 26.8657 27.0978 28.4101 27.0978 30.0042V36.0479H23.3046V23.8286Z" fill="white"/>
</g>
<defs>
<filter id="filter0_i_166_43" x="-4.92488" y="-14.972" width="56.7056" height="67.0194" filterUnits="userSpaceOnUse" color-interpolation-filters="sRGB">
<feFlood flood-opacity="0" result="BackgroundImageFix"/>
<feBlend mode="normal" in="SourceGraphic" in2="BackgroundImageFix" result="shape"/>
<feColorMatrix in="SourceAlpha" type="matrix" values="0 0 0 0 0 0 0 0 0 0 0 0 0 0 0 0 0 0 127 0" result="hardAlpha"/>
<feMorphology radius="14.7339" operator="erode" in="SourceAlpha" result="effect1_innerShadow_166_43"/>
<feOffset dx="-5.40242" dy="-15.7161"/>
<feGaussianBlur stdDeviation="9.82258"/>
<feComposite in2="hardAlpha" operator="arithmetic" k2="-1" k3="1"/>
<feColorMatrix type="matrix" values="0 0 0 0 1 0 0 0 0 1 0 0 0 0 1 0 0 0 1 0"/>
<feBlend mode="normal" in2="shape" result="effect1_innerShadow_166_43"/>
</filter>
<clipPath id="clip0_166_43">
<rect width="25.6054" height="25.6054" fill="white" transform="translate(13.3262 14.2295)"/>
</clipPath>
</defs>
</svg>
