<svg width="32" height="30" viewBox="0 0 32 30" fill="none" xmlns="http://www.w3.org/2000/svg">
<path fill-rule="evenodd" clip-rule="evenodd" d="M5.79081 1.14715V5.25395C5.79081 5.48597 5.9789 5.67406 6.21092 5.67406H16.5644L0.328125 21.9104H7.8839L24.1202 5.67406L24.1162 5.66302C24.6555 5.14087 24.9907 4.40926 24.9907 3.59935C24.9907 2.09017 23.8268 0.852844 22.3476 0.736062L22.3444 0.727051H22.1184H6.21092C5.9789 0.727051 5.79081 0.915137 5.79081 1.14715Z" fill="#1111FF"/>
<path fill-rule="evenodd" clip-rule="evenodd" d="M25.9123 28.8143V24.7075C25.9123 24.4755 25.7242 24.2874 25.4922 24.2874H15.1387L31.375 8.05106H23.8192L7.58292 24.2874L7.58688 24.2984C7.04764 24.8206 6.71243 25.5522 6.71243 26.3621C6.71243 27.8713 7.87636 29.1086 9.35553 29.2254L9.35876 29.2344H9.58473H25.4922C25.7242 29.2344 25.9123 29.0463 25.9123 28.8143Z" fill="#1111FF"/>
</svg>
